Coordinates
version=1
nRows=21
nColumns=12
inDegrees=yes

Units are S.I. units (second, meters, Newtons, ...)
Angles are in degrees

endheader
time	SC_y	SC_z	SC_x	AC_y	AC_z	AC_x	GH_y	GH_z	GH_yy	EL_x	PS_y
       0.0              -40.99          10.53          70.74          43.73         -14.23          16.86         -37.43          2.757         -155.9          130.0          109.1
  0.004533              -40.99          10.53          70.74          43.74         -14.23          16.86         -37.44          2.757         -155.9          130.0          109.1
  0.009065              -40.99          10.53          70.74          43.74         -14.23          16.86         -37.44          2.756         -155.9          130.0          109.1
    0.0136              -40.98          10.53          70.74          43.74         -14.23          16.86         -37.45          2.755         -155.8          130.0          109.1
   0.01813              -40.98          10.53          70.74          43.75         -14.23          16.86         -37.45          2.754         -155.8          130.0          109.1
   0.02266              -40.98          10.53          70.74          43.75         -14.23          16.86         -37.46          2.753         -155.7          130.0          109.1
    0.0272              -40.98          10.53          70.73          43.75         -14.23          16.86         -37.47          2.752         -155.7          130.0          109.1
   0.03173              -40.97          10.53          70.73          43.76         -14.23          16.86         -37.47          2.751         -155.6          130.0          109.1
   0.03626              -40.97          10.54          70.73          43.76         -14.23          16.86         -37.48           2.75         -155.5          130.0          109.1
   0.04079              -40.97          10.54          70.73          43.77         -14.24          16.85         -37.49          2.749         -155.5          130.0          109.1
   0.04533              -40.96          10.54          70.73          43.77         -14.24          16.85          -37.5          2.748         -155.4          130.0          109.1
   0.04986              -40.96          10.54          70.72          43.78         -14.24          16.85         -37.51          2.746         -155.3          130.0          109.1
   0.05439              -40.95          10.54          70.72          43.78         -14.24          16.85         -37.52          2.745         -155.2          130.0          109.1
   0.05892              -40.95          10.54          70.72          43.79         -14.24          16.85         -37.53          2.743         -155.1          130.0          109.1
   0.06346              -40.94          10.54          70.72          43.79         -14.24          16.85         -37.55          2.741         -155.0          130.0          109.1
   0.06799              -40.94          10.54          70.71           43.8         -14.25          16.85         -37.56          2.739         -154.9          129.9          109.1
   0.07252              -40.93          10.54          70.71          43.81         -14.25          16.85         -37.58          2.737         -154.8          129.9          109.1
   0.07705              -40.93          10.54           70.7          43.82         -14.25          16.85         -37.59          2.735         -154.7          129.9          109.1
   0.08159              -40.92          10.55           70.7          43.83         -14.25          16.84         -37.61          2.733         -154.5          129.9          109.1
   0.08612              -40.91          10.55           70.7          43.84         -14.26          16.84         -37.63           2.73         -154.4          129.9          109.1
   0.09065               -40.9          10.55          70.69          43.85         -14.26          16.84         -37.65          2.727         -154.2          129.9          109.1
